<svg width="25" height="25" viewBox="0 0 25 25" fill="none" xmlns="http://www.w3.org/2000/svg">
<path d="M10.2026 3.49005C10.2026 3.07584 10.5384 2.74005 10.9526 2.74005H14.9526C15.3668 2.74005 15.7026 3.07584 15.7026 3.49005V4.24005H19.9526C20.3668 4.24005 20.7026 4.57584 20.7026 4.99005C20.7026 5.40426 20.3668 5.74005 19.9526 5.74005H5.95264C5.53842 5.74005 5.20264 5.40426 5.20264 4.99005C5.20264 4.57584 5.53842 4.24005 5.95264 4.24005H10.2026V3.49005Z" fill="#232832"/>
<path fill-rule="evenodd" clip-rule="evenodd" d="M7.19253 8.43484C7.22067 8.18162 7.4347 7.99005 7.68947 7.99005H18.2158C18.4706 7.99005 18.6846 8.18162 18.7127 8.43484L18.9129 10.2362C19.2737 13.4832 19.2737 16.7601 18.9129 20.0071L18.8932 20.1844C18.7618 21.367 17.8453 22.31 16.6669 22.4749C14.2027 22.8199 11.7025 22.8199 9.23838 22.4749C8.06001 22.31 7.14348 21.367 7.01209 20.1844L6.99238 20.0071C6.63161 16.7601 6.63161 13.4832 6.99238 10.2362L7.19253 8.43484ZM11.7026 11.89C11.7026 11.4758 11.3669 11.14 10.9526 11.14C10.5384 11.14 10.2026 11.4758 10.2026 11.89L10.2026 18.89C10.2026 19.3043 10.5384 19.64 10.9526 19.64C11.3669 19.64 11.7026 19.3043 11.7026 18.89L11.7026 11.89ZM15.7026 11.89C15.7026 11.4758 15.3669 11.14 14.9526 11.14C14.5384 11.14 14.2026 11.4758 14.2026 11.89V18.89C14.2026 19.3043 14.5384 19.64 14.9526 19.64C15.3668 19.64 15.7026 19.3043 15.7026 18.89V11.89Z" fill="#232832"/>
</svg>
