<svg width="25" height="25" viewBox="0 0 25 25" fill="none" xmlns="http://www.w3.org/2000/svg">
<path fill-rule="evenodd" clip-rule="evenodd" d="M8.24971 4.50726C11.3188 4.16425 14.4916 4.16425 17.5607 4.50726C19.2734 4.69868 20.6552 6.04809 20.8563 7.76758C21.2232 10.9052 21.2232 14.0749 20.8563 17.2125C20.6552 18.932 19.2734 20.2814 17.5607 20.4729C14.4916 20.8159 11.3188 20.8159 8.24971 20.4729C6.53699 20.2814 5.15523 18.932 4.95412 17.2125C4.58715 14.0749 4.58715 10.9052 4.95412 7.76758C5.15523 6.04809 6.53699 4.69868 8.24971 4.50726ZM9.37488 8.95972C9.66778 8.66683 10.1426 8.66683 10.4355 8.95972L12.9052 11.4294L15.3749 8.95973C15.6678 8.66684 16.1427 8.66684 16.4356 8.95973C16.7284 9.25262 16.7284 9.7275 16.4356 10.0204L13.9659 12.4901L16.4355 14.9597C16.7284 15.2526 16.7284 15.7275 16.4355 16.0204C16.1426 16.3133 15.6678 16.3133 15.3749 16.0204L12.9052 13.5507L10.4356 16.0204C10.1427 16.3133 9.66778 16.3133 9.37489 16.0204C9.082 15.7275 9.082 15.2526 9.37489 14.9597L11.8446 12.4901L9.37488 10.0204C9.08199 9.72749 9.08199 9.25261 9.37488 8.95972Z" fill="#232832"/>
</svg>
