<svg width="24" height="24" viewBox="0 0 24 24" fill="none" xmlns="http://www.w3.org/2000/svg">
<path fill-rule="evenodd" clip-rule="evenodd" d="M13.6642 6.34311C13.6642 6.75732 14 7.09311 14.4142 7.09311L16.9068 7.09311V9.58575C16.9068 9.99996 17.2426 10.3358 17.6568 10.3358C18.071 10.3357 18.4068 9.99996 18.4068 9.58575V6.34311C18.4068 5.9289 18.071 5.59311 17.6568 5.59311L14.4142 5.59311C14 5.59311 13.6642 5.9289 13.6642 6.34311Z" fill="#232832"/>
<path fill-rule="evenodd" clip-rule="evenodd" d="M17.6568 13.6642C17.2426 13.6642 16.9068 14 16.9068 14.4142L16.9068 16.9068L14.4142 16.9068C13.9999 16.9068 13.6642 17.2426 13.6642 17.6568C13.6642 18.071 13.9999 18.4068 14.4142 18.4068L17.6568 18.4068C18.071 18.4068 18.4068 18.071 18.4068 17.6568L18.4068 14.4142C18.4068 14 18.071 13.6642 17.6568 13.6642Z" fill="#232832"/>
<path fill-rule="evenodd" clip-rule="evenodd" d="M6.34311 13.6642C6.75732 13.6642 7.09311 14 7.09311 14.4142L7.09311 16.9068L9.58575 16.9068C9.99996 16.9068 10.3357 17.2426 10.3357 17.6568C10.3357 18.071 9.99996 18.4068 9.58575 18.4068L6.34311 18.4068C5.92889 18.4068 5.59311 18.071 5.59311 17.6568L5.59311 14.4142C5.59311 14 5.92889 13.6642 6.34311 13.6642Z" fill="#232832"/>
<path fill-rule="evenodd" clip-rule="evenodd" d="M10.3357 6.34311C10.3357 6.75732 9.99993 7.09311 9.58572 7.09311L7.09308 7.09311L7.09308 9.58575C7.09308 9.99996 6.75729 10.3358 6.34308 10.3358C5.92887 10.3358 5.59308 9.99996 5.59308 9.58575L5.59308 6.34311C5.59308 5.9289 5.92887 5.59311 6.34308 5.59311L9.58572 5.59311C9.99993 5.59311 10.3357 5.9289 10.3357 6.34311Z" fill="#232832"/>
</svg>
