<svg width="25" height="25" viewBox="0 0 25 25" fill="none" xmlns="http://www.w3.org/2000/svg">
<path d="M7.79305 4.25881C10.8806 3.91373 14.072 3.91373 17.1596 4.25881C18.3188 4.38837 19.3364 5.01524 19.9801 5.92564L11.9763 13.9294L9.50665 11.4597C9.21376 11.1668 8.73888 11.1668 8.44599 11.4597C8.1531 11.7526 8.1531 12.2275 8.44599 12.5204L11.446 15.5204C11.7389 15.8133 12.2138 15.8133 12.5066 15.5204L20.6221 7.40496C20.6446 7.51452 20.6625 7.62578 20.6757 7.73854C21.0449 10.8955 21.0449 14.0847 20.6757 17.2416C20.4608 19.0785 18.9859 20.5172 17.1596 20.7213C14.072 21.0664 10.8806 21.0664 7.79305 20.7213C5.96667 20.5172 4.49177 19.0785 4.27692 17.2416C3.90769 14.0847 3.90769 10.8955 4.27692 7.73854C4.49177 5.90158 5.96667 4.46293 7.79305 4.25881Z" fill="#232832"/>
</svg>
