<svg width="25" height="25" viewBox="0 0 25 25" fill="none" xmlns="http://www.w3.org/2000/svg">
<path fill-rule="evenodd" clip-rule="evenodd" d="M10.6822 4.48267C11.7742 2.885 14.131 2.88501 15.223 4.48268L15.6549 5.11462C18.3609 9.07384 20.6859 13.2805 22.5986 17.6781L22.6888 17.8855C23.3629 19.4353 22.3445 21.195 20.665 21.3827C15.5393 21.9556 10.3658 21.9556 5.2402 21.3827C3.56066 21.195 2.54229 19.4353 3.21635 17.8855L3.30656 17.6781C5.21929 13.2805 7.54425 9.07383 10.2503 5.11462L10.6822 4.48267ZM13.9526 9.49004C13.9526 10.0423 13.5049 10.49 12.9526 10.49C12.4003 10.49 11.9526 10.0423 11.9526 9.49004C11.9526 8.93776 12.4003 8.49004 12.9526 8.49004C13.5049 8.49004 13.9526 8.93776 13.9526 9.49004ZM12.9526 12.24C13.3668 12.24 13.7026 12.5758 13.7026 12.99V17.99C13.7026 18.4043 13.3668 18.74 12.9526 18.74C12.5384 18.74 12.2026 18.4043 12.2026 17.99V12.99C12.2026 12.5758 12.5384 12.24 12.9526 12.24Z" fill="#232832"/>
</svg>
